<svg version="1.1" xmlns="http://www.w3.org/2000/svg" xmlns:xlink="http://www.w3.org/1999/xlink" width="509.5" height="99" viewBox="0,0,509.5,99"><g><g data-paper-data="{&quot;isPaintingLayer&quot;:true}" fill-rule="nonzero" stroke-linejoin="miter" stroke-miterlimit="10" stroke-dasharray="" stroke-dashoffset="0" style="mix-blend-mode: normal"><path d="M-14.75,229.5v-99h509.5v99z" fill="#000000" stroke="none" stroke-width="0" stroke-linecap="butt" transform="matrix(1,0,0,1,14.75,-130.5)"/><g stroke-linecap="round"><path d="M 110.7813 25.6125 L 130.7813 25.8625 L 134.5313 51.3625 L 138.7813 25.6125 L 157.5313 25.6125 L 161.2813 50.6125 L 165.7813 25.3625 L 183.2813 25.6125 L 175.2813 82.1125 L 151.7813 82.3625 L 147.7813 62.1125 L 144.2813 82.3625 L 120.2813 82.3625 Z " stroke-width="2" fill="#e33535" stroke="#000000"/><path d="M 183.842 30.6541 C 183.9218 28.7389 186.1368 26.0738 188.2254 26.0353 C 192.7487 25.9521 210.3069 25.6289 219.3421 25.4626 C 222.6239 25.4022 224.7928 27.9948 224.8047 30.6752 C 224.8414 39.0154 225.0313 82.1125 225.0313 82.1125 C 225.0313 82.1125 194.323 81.9275 187.9705 81.8893 C 185.7719 81.876 183.5496 79.2717 183.5662 76.9275 C 183.5971 72.5742 183.7024 57.7252 183.7533 50.5529 C 183.7703 48.153 186.087 46.5863 187.9661 46.565 C 191.8432 46.5209 205.7813 46.3625 205.7813 46.3625 L 205.5313 39.8625 L 201.2813 39.8625 L 201.0313 44.1125 L 183.2813 44.1125 C 183.2813 44.1125 183.7046 33.951 183.842 30.6541 Z M 205.5396 67.3044 L 205.4396 59.3044 L 202.8396 59.4044 L 202.8396 67.3044 Z " stroke-width="2" fill="#e33535" stroke="#000000"/><path d="M 247.9688 40.55 L 244.7188 40.675 L 244.8438 47.55 C 244.8438 47.55 259.0873 47.3961 263.2166 47.3514 C 265.3167 47.3287 267.9767 49.5548 267.9842 51.675 C 267.9981 55.6053 268.0458 69.0961 268.0734 76.9251 C 268.0855 80.338 266.1799 82.6693 263.2203 82.6604 C 254.6843 82.6348 237.4494 82.583 232.3444 82.5677 C 229.5573 82.5593 226.4688 80.3704 226.4688 78.675 C 226.4688 75.4382 226.4688 64.55 226.4688 64.55 L 245.0938 64.675 L 245.0938 67.55 L 249.0938 67.425 L 248.8438 61.05 C 248.8438 61.05 234.6996 61.05 230.7188 61.05 C 228.763 61.05 226.3343 59.6984 226.3192 57.552 C 226.2698 50.5135 226.1604 34.9282 226.1288 30.4257 C 226.1122 28.0513 228.1184 25.425 231.2188 25.425 C 239.8947 25.425 256.9939 25.425 261.7188 25.425 C 264.0911 25.425 266.6192 27.3439 266.6401 28.9228 C 266.6839 32.2332 266.8438 44.3 266.8438 44.3 L 248.2188 44.55 Z " stroke-width="2" fill="#e33535" stroke="#000000"/><path d="M 290.7188 25.3 L 290.8438 29.05 L 312.7188 28.8 L 312.3438 44.175 L 290.8438 44.425 L 291.0938 66.55 L 293.9688 66.55 L 293.8438 46.05 L 313.2188 45.55 C 313.2188 45.55 313.1328 70.9107 313.112 77.0497 C 313.1034 79.5856 309.9272 82.4155 307.0942 82.4069 C 301.9481 82.3914 284.7054 82.3393 276.3437 82.314 C 273.5275 82.3055 271.6916 80.2169 271.665 78.1757 C 271.5884 72.2934 271.2188 43.925 271.2188 43.925 L 267.0938 43.8 L 267.2188 29.425 L 271.4688 29.3 L 271.3438 25.3 Z " stroke-width="2" fill="#e33535" stroke="#000000"/><path d="M 332.9688 67.175 L 337.2188 67.05 L 336.9688 63.175 L 355.8438 63.05 C 355.8438 63.05 356.0285 72.9642 356.0976 76.675 C 356.1454 79.238 353.2853 83.1663 350.5938 83.1583 C 345.6798 83.1437 329.0722 83.0942 320.0948 83.0675 C 316.568 83.057 314.2138 80.7386 314.2085 78.3003 C 314.195 72.0084 314.1341 43.787 314.1069 31.1742 C 314.0989 27.4211 317.3368 25.0893 320.2163 25.1242 C 324.9152 25.1812 339.5152 25.3582 348.3448 25.4652 C 352.4758 25.5153 355.2887 28.1748 355.2389 30.5504 C 355.1153 36.4415 354.5938 61.3 354.5938 61.3 L 332.9688 61.175 Z M 333.0063 47.3044 L 336.0063 47.3044 L 335.9063 40.5044 L 332.9063 40.5044 Z " stroke-width="2" fill="#e33535" stroke="#000000"/><path d="M 378.4688 25.55 L 378.7188 11.3 L 398.4688 11.175 L 398.7188 82.3 C 398.7188 82.3 369.9488 82.4733 363.0905 82.5147 C 360.3063 82.5314 357.202 80.6393 357.1748 77.546 C 357.0736 66.0396 356.8286 38.1706 356.7693 31.4246 C 356.7441 28.5541 359.7309 25.6577 361.9686 25.6449 C 365.9357 25.6221 378.4688 25.55 378.4688 25.55 Z M 375.7729 66.871 L 379.1729 66.971 L 379.1729 41.171 L 376.1729 41.171 Z " stroke-width="2" fill="#e33535" stroke="#000000"/></g></g></g></svg>