<svg version="1.1" xmlns="http://www.w3.org/2000/svg" xmlns:xlink="http://www.w3.org/1999/xlink" width="177.52922" height="153.32532" viewBox="0,0,177.52922,153.32532"><g transform="translate(-151.23539,-103.33734)"><g data-paper-data="{&quot;isPaintingLayer&quot;:true}" fill="#ffffff" fill-rule="nonzero" stroke="none" stroke-width="0" stroke-linecap="butt" stroke-linejoin="miter" stroke-miterlimit="10" stroke-dasharray="" stroke-dashoffset="0" style="mix-blend-mode: normal"><path d="M178.54758,247.39773c0,-13.63059 0,-80.84096 0,-80.84096l-27.31219,-16.34985l27.31219,-15.25986c0,0 0,-20.69427 0,-26.15977c0,-2.49465 2.3272,-5.44995 5.28623,-5.44995c13.48086,0 113.22177,0 138.91037,0c3.83573,0 6.02043,3.58349 6.02043,7.8116c0,15.24914 0,106.62387 0,136.2488c0,5.8269 -3.05443,9.26492 -6.75463,9.26492c-14.67111,0 -110.28656,0 -136.70778,0c-4.28901,0 -6.75463,-4.65047 -6.75463,-9.26492z"/></g></g></svg>